<?xml version="1.0" standalone="no"?>
<!DOCTYPE svg PUBLIC "-//W3C//DTD SVG 20010904//EN"
 "http://www.w3.org/TR/2001/REC-SVG-20010904/DTD/svg10.dtd">
<svg version="1.0" xmlns="http://www.w3.org/2000/svg"
 width="1200.000000pt" height="1200.000000pt" viewBox="0 0 1200.000000 1200.000000"
 preserveAspectRatio="xMidYMid meet">

<g transform="translate(0.000000,1200.000000) scale(0.100000,-0.100000)"
fill="#000000" stroke="none">
<path d="M2175 9381 l-100 -6 -3 -54 c-13 -224 117 -418 323 -481 26 -8 164
-15 395 -20 374 -9 588 -25 885 -66 930 -130 1762 -452 2353 -911 49 -39 82
-71 82 -82 0 -10 -12 -45 -26 -77 -15 -33 -42 -103 -60 -157 -187 -544 -172
-1178 47 -2049 l29 -117 -128 -160 c-465 -581 -733 -1112 -783 -1551 -16 -136
3 -334 40 -433 l10 -27 -192 -2 c-331 -5 -461 16 -544 87 -35 29 -44 45 -54
93 -17 81 1 211 50 359 38 118 174 413 272 594 148 273 230 457 276 625 23 82
27 119 27 219 0 105 -3 130 -28 200 -111 320 -398 494 -949 575 -73 11 -151
20 -174 20 l-43 0 0 -57 c0 -90 26 -190 71 -282 72 -147 185 -239 373 -306 27
-10 67 -34 89 -54 87 -78 100 -177 41 -319 -38 -94 -181 -374 -195 -382 -18
-12 -246 -479 -282 -578 -83 -228 -113 -398 -104 -592 7 -150 25 -228 79 -337
73 -151 227 -286 400 -353 220 -85 275 -90 1078 -90 371 0 1002 3 1403 7 l727
6 0 92 c0 158 -41 265 -137 356 -76 72 -147 102 -255 107 -56 3 -88 9 -88 16
0 6 7 45 16 86 13 59 15 111 11 245 -11 322 -89 719 -276 1406 -45 163 -81
306 -81 319 0 18 69 92 274 294 244 241 282 284 349 386 103 157 180 315 237
490 81 243 107 426 111 759 l1 134 -267 224 c-196 165 -270 222 -278 214 -8
-8 -11 -101 -9 -309 3 -413 -21 -626 -99 -864 -72 -222 -158 -357 -353 -555
-77 -79 -145 -143 -152 -143 -30 0 -92 451 -101 725 -14 468 63 779 273 1110
39 61 73 115 77 122 5 7 -26 50 -79 110 -301 343 -797 678 -1369 926 -667 288
-1414 456 -2262 507 -175 10 -746 11 -928 1z m4204 -4876 c117 -365 171 -600
192 -828 13 -134 1 -233 -37 -314 -28 -58 -103 -127 -180 -163 -57 -28 -83
-34 -154 -38 -147 -7 -259 29 -349 113 -70 65 -86 117 -86 265 1 135 21 226
90 412 71 190 246 503 351 629 19 23 49 62 66 86 18 24 35 40 39 36 4 -5 34
-93 68 -198z"/>
<path d="M2723 8128 c8 -166 48 -261 150 -355 89 -82 147 -101 372 -119 733
-59 1387 -212 1917 -449 l118 -53 38 72 c53 97 65 137 60 209 -8 121 -91 244
-206 305 -208 110 -845 301 -1252 376 -366 67 -903 126 -1147 126 l-56 0 6
-112z"/>
<path d="M3192 6968 c4 -97 9 -135 27 -181 44 -112 173 -219 296 -245 28 -6
95 -14 150 -17 510 -31 962 -142 1417 -348 l56 -26 42 69 c54 92 70 140 70
211 0 126 -79 244 -207 312 -92 48 -386 147 -585 197 -340 85 -844 150 -1177
150 l-93 0 4 -122z"/>
<path d="M8395 6719 c17 -58 40 -115 118 -295 129 -298 167 -436 167 -612 0
-132 -9 -184 -53 -300 -68 -182 -173 -333 -385 -555 -171 -179 -220 -238 -299
-359 -186 -283 -259 -602 -208 -904 43 -251 203 -661 365 -935 l71 -119 367 2
367 3 3 80 c10 254 -126 439 -352 478 l-66 11 -40 93 c-54 122 -114 291 -141
395 -18 70 -20 103 -17 213 4 114 8 140 36 212 45 121 122 231 272 389 252
265 387 446 490 659 107 219 150 385 150 574 0 119 -25 311 -42 326 -7 7 -184
155 -393 330 -209 175 -390 327 -402 337 l-22 20 14 -43z"/>
</g>
</svg>
