<?xml version="1.0" standalone="no"?>
<!DOCTYPE svg PUBLIC "-//W3C//DTD SVG 20010904//EN"
 "http://www.w3.org/TR/2001/REC-SVG-20010904/DTD/svg10.dtd">
<svg version="1.0" xmlns="http://www.w3.org/2000/svg"
 width="250.000000pt" height="250.000000pt" viewBox="0 0 250.000000 250.000000"
 preserveAspectRatio="xMidYMid meet">

<g transform="translate(0.000000,250.000000) scale(0.100000,-0.100000)"
fill="#000000" stroke="none">
<path d="M876 2311 c-8 -28 -12 -66 -9 -84 5 -33 4 -34 -78 -76 -246 -127
-427 -336 -514 -595 -35 -104 -35 -106 24 -106 75 0 80 -12 73 -173 -9 -248
55 -443 208 -625 27 -33 50 -63 50 -66 0 -3 -17 -6 -38 -6 -102 0 -222 -116
-222 -215 0 -21 5 -25 30 -25 25 0 32 6 44 35 20 46 63 85 94 85 l25 0 -21
-22 c-20 -22 -42 -68 -42 -89 0 -6 15 -9 32 -7 27 2 36 10 50 39 19 42 62 79
89 79 25 0 24 -6 -6 -42 -14 -16 -25 -40 -25 -54 l0 -24 355 0 c390 0 441 5
585 61 125 48 198 97 305 204 71 71 113 123 144 178 183 327 153 719 -77 1005
-19 24 -36 54 -37 65 -1 12 -3 27 -4 34 -2 20 -61 82 -110 115 -74 51 -124 97
-147 135 -24 38 -25 37 -39 -34 -9 -44 11 -134 38 -174 30 -45 92 -85 152
-100 28 -6 57 -15 65 -19 22 -12 107 -156 130 -222 25 -72 25 -103 0 -128 -19
-19 -33 -20 -515 -20 -272 0 -495 -2 -495 -5 0 -3 6 -20 14 -39 26 -62 47 -66
384 -66 l300 0 31 -26 c26 -22 31 -33 31 -70 0 -34 -6 -51 -25 -69 -24 -25
-25 -25 -226 -25 l-201 0 7 -27 c3 -16 14 -36 23 -47 36 -39 66 -46 207 -46
74 0 135 -4 135 -8 0 -17 -57 -88 -108 -133 -112 -101 -266 -140 -405 -104
-190 49 -327 198 -359 389 -23 140 34 299 143 400 100 93 187 128 319 128 111
0 201 -30 281 -93 20 -16 39 -29 42 -29 10 0 27 63 27 100 0 49 -44 135 -86
166 -29 22 -34 33 -34 67 0 22 -9 60 -21 83 -32 67 -78 97 -278 178 -144 59
-185 83 -248 147 l-51 52 -16 -52z m414 -299 c14 -7 43 -18 65 -25 28 -10 43
-22 49 -40 6 -15 7 -29 4 -32 -3 -3 -42 19 -86 48 -45 30 -79 57 -75 60 3 4 9
5 12 4 3 -2 17 -8 31 -15z"/>
<path d="M1155 1253 c9 -20 17 -38 18 -38 1 -1 13 -9 27 -18 21 -15 56 -17
248 -17 135 0 231 4 243 10 25 14 25 61 1 83 -16 15 -51 17 -285 17 l-267 0
15 -37z"/>
</g>
</svg>
